<svg width="512" height="515" viewBox="0 0 512 515" fill="none" xmlns="http://www.w3.org/2000/svg">
<path d="M256 512C397.385 512 512 397.385 512 256C512 114.615 397.385 0 256 0C114.615 0 0 114.615 0 256C0 397.385 114.615 512 256 512Z" fill="#EAECF0"/>
<g filter="url(#filter0_d_7_91)">
<mask id="mask0_7_91" style="mask-type:alpha" maskUnits="userSpaceOnUse" x="0" y="0" width="512" height="512">
<path d="M256 512C397.385 512 512 397.385 512 256C512 114.615 397.385 0 256 0C114.615 0 0 114.615 0 256C0 397.385 114.615 512 256 512Z" fill="url(#paint0_linear_7_91)"/>
</mask>
<g mask="url(#mask0_7_91)">
<path d="M402.773 146.773H109.227C99.8009 146.773 92.1599 154.414 92.1599 163.84V522.24C92.1599 531.666 99.8009 539.307 109.227 539.307H402.773C412.199 539.307 419.84 531.666 419.84 522.24V163.84C419.84 154.414 412.199 146.773 402.773 146.773Z" fill="white"/>
</g>
</g>
<path d="M225.28 180.907H136.533C130.878 180.907 126.293 185.491 126.293 191.147C126.293 196.802 130.878 201.387 136.533 201.387H225.28C230.936 201.387 235.52 196.802 235.52 191.147C235.52 185.491 230.936 180.907 225.28 180.907Z" fill="#EAECF0"/>
<path d="M225.28 324.267H136.533C130.878 324.267 126.293 328.851 126.293 334.507C126.293 340.162 130.878 344.747 136.533 344.747H225.28C230.936 344.747 235.52 340.162 235.52 334.507C235.52 328.851 230.936 324.267 225.28 324.267Z" fill="#EAECF0"/>
<path d="M368.639 232.106H143.359C135.818 232.106 129.706 238.218 129.706 245.759V279.892C129.706 287.433 135.818 293.546 143.359 293.546H368.639C376.179 293.546 382.292 287.433 382.292 279.892V245.759C382.292 238.218 376.179 232.106 368.639 232.106Z" stroke="#98A2B3" stroke-width="2"/>
<path d="M368.64 372.053H143.36C133.934 372.053 126.293 379.694 126.293 389.12V416.427C126.293 425.852 133.934 433.493 143.36 433.493H368.64C378.066 433.493 385.707 425.852 385.707 416.427V389.12C385.707 379.694 378.066 372.053 368.64 372.053Z" fill="#EAECF0"/>
<path d="M180.907 109.227C188.447 109.227 194.56 103.114 194.56 95.5733C194.56 88.0328 188.447 81.92 180.907 81.92C173.366 81.92 167.253 88.0328 167.253 95.5733C167.253 103.114 173.366 109.227 180.907 109.227Z" fill="white"/>
<path d="M256.001 109.227C263.541 109.227 269.654 103.114 269.654 95.5739C269.654 88.0334 263.541 81.9205 256.001 81.9205C248.46 81.9205 242.347 88.0334 242.347 95.5739C242.347 103.114 248.46 109.227 256.001 109.227Z" fill="#98A2B3"/>
<path d="M331.094 109.227C338.635 109.227 344.747 103.114 344.747 95.5739C344.747 88.0334 338.635 81.9205 331.094 81.9205C323.553 81.9205 317.441 88.0334 317.441 95.5739C317.441 103.114 323.553 109.227 331.094 109.227Z" fill="white"/>
<path d="M293.548 300.374C302.974 300.374 310.615 292.733 310.615 283.308C310.615 273.882 302.974 266.241 293.548 266.241C284.122 266.241 276.481 273.882 276.481 283.308C276.481 292.733 284.122 300.374 293.548 300.374Z" fill="#EAECF0"/>
<path d="M306.884 356.252C304.153 356.252 301.604 356.252 299.282 356.105C296.423 355.912 293.673 354.934 291.334 353.278C288.995 351.623 287.158 349.354 286.025 346.722L271.624 318.262C270.568 317.032 270.041 315.434 270.157 313.817C270.273 312.201 271.024 310.695 272.245 309.629C273.246 308.825 274.494 308.392 275.778 308.404C276.723 308.431 277.651 308.664 278.498 309.084C279.345 309.505 280.09 310.104 280.683 310.841L287.223 319.767L287.322 319.883V285.971C287.322 284.289 287.99 282.675 289.18 281.486C290.37 280.296 291.983 279.628 293.666 279.628C295.348 279.628 296.962 280.296 298.151 281.486C299.341 282.675 300.01 284.289 300.01 285.971V308.158C299.936 307.342 300.033 306.519 300.295 305.742C300.557 304.965 300.978 304.252 301.531 303.646C302.084 303.041 302.757 302.558 303.507 302.227C304.257 301.897 305.068 301.726 305.887 301.726C306.707 301.726 307.518 301.897 308.268 302.227C309.018 302.558 309.691 303.041 310.244 303.646C310.797 304.252 311.218 304.965 311.48 305.742C311.742 306.519 311.839 307.342 311.765 308.158V312.783C311.691 311.967 311.789 311.144 312.05 310.367C312.312 309.59 312.733 308.877 313.286 308.272C313.839 307.666 314.512 307.183 315.262 306.852C316.012 306.522 316.823 306.351 317.643 306.351C318.463 306.351 319.273 306.522 320.023 306.852C320.773 307.183 321.446 307.666 321.999 308.272C322.552 308.877 322.973 309.59 323.235 310.367C323.497 311.144 323.594 311.967 323.521 312.783V316.347C323.447 315.53 323.544 314.707 323.806 313.931C324.068 313.154 324.489 312.44 325.042 311.835C325.595 311.23 326.268 310.747 327.018 310.416C327.768 310.085 328.579 309.915 329.398 309.915C330.218 309.915 331.029 310.085 331.779 310.416C332.529 310.747 333.202 311.23 333.755 311.835C334.308 312.44 334.729 313.154 334.991 313.931C335.253 314.707 335.35 315.53 335.276 316.347V337.977C335.16 344.63 332.153 355.846 321.575 355.846C320.807 355.88 314.301 356.255 306.898 356.255L306.884 356.252Z" fill="#98A2B3" stroke="white"/>
<defs>
<filter id="filter0_d_7_91" x="86.1599" y="137.773" width="339.68" height="377.227" filterUnits="userSpaceOnUse" color-interpolation-filters="sRGB">
<feFlood flood-opacity="0" result="BackgroundImageFix"/>
<feColorMatrix in="SourceAlpha" type="matrix" values="0 0 0 0 0 0 0 0 0 0 0 0 0 0 0 0 0 0 127 0" result="hardAlpha"/>
<feOffset dy="-3"/>
<feGaussianBlur stdDeviation="3"/>
<feColorMatrix type="matrix" values="0 0 0 0 0.788235 0 0 0 0 0.803922 0 0 0 0 0.85098 0 0 0 0.349 0"/>
<feBlend mode="normal" in2="BackgroundImageFix" result="effect1_dropShadow_7_91"/>
<feBlend mode="normal" in="SourceGraphic" in2="effect1_dropShadow_7_91" result="shape"/>
</filter>
<linearGradient id="paint0_linear_7_91" x1="256" y1="0" x2="256" y2="512" gradientUnits="userSpaceOnUse">
<stop stop-color="#E3ECFA"/>
<stop offset="1" stop-color="#DAE7FF"/>
</linearGradient>
</defs>
</svg>
