<?xml version="1.0" encoding="UTF-8"?>
<!DOCTYPE svg PUBLIC "-//W3C//DTD SVG 1.1//EN" "http://www.w3.org/Graphics/SVG/1.1/DTD/svg11.dtd">
<!-- Creator: CorelDRAW 2021 (64-Bit) -->
<svg xmlns="http://www.w3.org/2000/svg" xml:space="preserve" width="110px" height="33px" version="1.1" style="shape-rendering:geometricPrecision; text-rendering:geometricPrecision; image-rendering:optimizeQuality; fill-rule:evenodd; clip-rule:evenodd"
viewBox="0 0 110 33.47"
 xmlns:xlink="http://www.w3.org/1999/xlink"
 xmlns:xodm="http://www.corel.com/coreldraw/odm/2003">
 <defs>
  <style type="text/css">
   <![CDATA[
    .fil0 {fill:none}
    .fil7 {fill:#303440;fill-rule:nonzero}
    .fil2 {fill:#F9BC17;fill-rule:nonzero}
    .fil5 {fill:#FADA59;fill-rule:nonzero}
    .fil1 {fill:url(#id0);fill-rule:nonzero}
    .fil6 {fill:url(#id1);fill-rule:nonzero}
    .fil3 {fill:url(#id2);fill-rule:nonzero}
    .fil4 {fill:url(#id3);fill-rule:nonzero}
   ]]>
  </style>
  <linearGradient id="id0" gradientUnits="userSpaceOnUse" x1="96.47" y1="9.04" x2="96.71" y2="12.17">
   <stop offset="0" style="stop-opacity:1; stop-color:#FBBD15"/>
   <stop offset="1" style="stop-opacity:1; stop-color:#FBDA59"/>
  </linearGradient>
  <linearGradient id="id1" gradientUnits="userSpaceOnUse" xlink:href="#id0" x1="1531.61" y1="-580.45" x2="2101.1" y2="-1534.69">
  </linearGradient>
  <linearGradient id="id2" gradientUnits="userSpaceOnUse" xlink:href="#id0" x1="1501.01" y1="-1853.43" x2="2183.08" y2="-465.29">
  </linearGradient>
  <linearGradient id="id3" gradientUnits="userSpaceOnUse" xlink:href="#id0" x1="1287.65" y1="-52.38" x2="1573.61" y2="-603.16">
  </linearGradient>
 </defs>
 <g id="Layer_x0020_1">
  <metadata id="CorelCorpID_0Corel-Layer"/>
  <rect class="fil0" y="0.26" width="110" height="33.47"/>
  <g id="_2039959407424">
   <g>
    <path class="fil1" d="M98.42 12.54l0 0c-0.12,-0.11 -0.27,-0.2 -0.43,-0.25 -0.46,-0.38 -0.76,-0.91 -0.85,-1.49 -0.09,-0.64 -0.15,-1.29 -0.17,-1.93 0,-0.02 0,-0.03 0,-0.05 0,-0.61 -0.49,-1.11 -1.1,-1.11 -0.61,0 -1.11,0.5 -1.11,1.11 0,0.02 0,0.03 0.01,0.05 0,0 0,0 0,0 0,0.23 0.07,0.46 0.21,0.65l0 0c0,0 1.01,1.08 1.25,1.99 0.15,0.6 0.25,1.21 0.3,1.82 0,0 0,0 0,0 0,0.61 0.49,1.11 1.1,1.11 0.61,0 1.11,-0.5 1.11,-1.11 0,-0.3 -0.12,-0.58 -0.33,-0.79l0.01 0z"/>
    <path class="fil2" d="M88.73 12.23c-0.13,0 -0.27,0.02 -0.39,0.07l0 0c-1.3,0.51 -2.68,0.79 -4.07,0.8 -2.09,0 -3.37,-0.5 -3.83,-0.71 -0.06,-0.03 -0.12,-0.06 -0.17,-0.09l0 0 0 0c-0.13,-0.04 -0.26,-0.07 -0.39,-0.07 -0.61,0 -1.11,0.5 -1.11,1.11 0,0.61 0.5,1.1 1.11,1.1 0.13,0 0.26,-0.02 0.39,-0.07l0 0c1.32,-0.32 2.68,-0.49 4.04,-0.49 1.36,0 2.72,0.17 4.04,0.49l0 0c0.12,0.04 0.25,0.07 0.39,0.07 0.6,0 1.1,-0.5 1.1,-1.1 0,-0.61 -0.49,-1.1 -1.1,-1.11l-0.01 0z"/>
    <path class="fil3" d="M94.3 23.66l0 0c-0.93,-3.39 -1.64,-6.89 -2.1,-10.37 -0.4,-3.47 -0.63,-6.96 -0.63,-10.45 0.01,-0.06 0.01,-0.11 0.01,-0.16 0,-0.61 -0.49,-1.1 -1.1,-1.1 -0.61,0 -1.11,0.49 -1.11,1.1 0,0 0,0 0,0 0,0.15 0.03,0.3 0.1,0.44 0.17,0.68 1.55,6.1 2.08,10.27 0.42,3.24 0.64,6.54 0.64,9.81 0,0.25 0,0.5 0,0.74l0.01 0c-0.01,0.05 -0.01,0.11 -0.01,0.16 -0.01,0.02 -0.01,0.04 -0.01,0.05 0,0.61 0.5,1.11 1.11,1.11 0.61,0 1.1,-0.5 1.1,-1.11 0,-0.01 0,-0.03 0,-0.05 0,0 0,-0.01 0,-0.01 0,-0.15 -0.03,-0.29 -0.09,-0.43l0 0z"/>
    <path class="fil4" d="M91.59 2.68c0,-0.61 -0.5,-1.1 -1.11,-1.1 -0.55,0 -1.02,0.41 -1.09,0.96l-0.01 0 0 0.09c-0.01,0.01 -0.01,0.02 -0.01,0.03 0,0.01 0,0.02 0.01,0.03 0,0.07 0,0.14 0.02,0.22 0.02,0.49 0.04,0.99 0.04,1.49 0,1.33 -0.1,2.68 -0.3,4 -0.25,1.43 -0.66,2.84 -1.22,4.19 -0.19,0.2 -0.29,0.47 -0.29,0.75 0,0.61 0.49,1.1 1.1,1.1 0.61,0 1.1,-0.49 1.1,-1.1 0,0 0,0 0,0 0,-0.07 0,-0.14 -0.01,-0.2l0 0c-0.02,-0.37 -0.03,-0.76 -0.03,-1.14 0,-1.17 0.09,-2.34 0.28,-3.5 0.36,-1.8 0.84,-3.59 1.42,-5.34l-0.02 0c0.08,-0.15 0.12,-0.31 0.12,-0.48z"/>
    <path class="fil5" d="M106.41 12.23c-0.21,0 -0.41,0.06 -0.59,0.17 -1.22,0.44 -2.51,0.68 -3.81,0.69 -1.96,0 -3.22,-0.43 -3.74,-0.66 -0.19,-0.13 -0.41,-0.2 -0.63,-0.2 0,0 0,0 0,0 -0.61,0 -1.11,0.49 -1.11,1.1 0,0.61 0.5,1.11 1.11,1.11 0.12,-0.01 0.25,-0.03 0.37,-0.08 1.29,-0.32 2.63,-0.48 3.97,-0.48 0.02,0 0.04,0 0.07,0 0,0 0.01,0 0.02,0 1.31,0 2.62,0.16 3.89,0.46 0.14,0.06 0.3,0.1 0.45,0.1 0.61,0 1.11,-0.5 1.11,-1.11 0,-0.61 -0.5,-1.1 -1.11,-1.1z"/>
    <path class="fil6" d="M92.19 23.93c0.39,-1.93 1.29,-3.28 2,-7.6 0.75,-4.52 0.58,-7.41 0.58,-7.41l0 0c-0.01,-0.01 -0.01,-0.02 -0.01,-0.03 0,-0.01 0,-0.02 0.01,-0.03 0,-0.61 0.49,-1.11 1.1,-1.11 0.61,0 1.11,0.5 1.11,1.11 0,0.14 -0.03,0.29 -0.09,0.42l0 0c-0.68,1.59 -1.27,3.33 -1.89,7.27 -0.38,2.44 -0.59,4.94 -0.6,7.42l0 0.14c0,0.01 0,0.03 0,0.05 0,0.61 -0.49,1.1 -1.1,1.1 -0.61,0 -1.11,-0.49 -1.11,-1.1 0,-0.02 0,-0.04 0,-0.06 0,-0.02 0,-0.05 0,-0.08 0,-0.03 0,-0.06 0,-0.09l0 0z"/>
   </g>
   <path class="fil7" d="M28.51 32.84c-0.84,0.47 -1.81,0.74 -2.83,0.74 -1.65,0 -3.14,-0.69 -4.22,-1.79 -1.08,-1.11 -1.75,-2.64 -1.75,-4.32 0,-1.7 0.67,-3.24 1.75,-4.35 1.07,-1.11 2.57,-1.8 4.22,-1.8 1.57,0 2.98,0.62 4.03,1.63 1.07,1.03 1.76,2.46 1.89,4.07l0 0.03 0 0.09c0,0.27 -0.11,0.5 -0.29,0.66l0 0c-0.18,0.16 -0.42,0.26 -0.67,0.26l-8.97 0c0.14,0.96 0.58,1.81 1.21,2.44 0.73,0.72 1.72,1.15 2.8,1.15 0.69,0 1.35,-0.18 1.93,-0.5 0.58,-0.33 1.07,-0.8 1.42,-1.38l0 0 0 -0.01 0.01 0c0.14,-0.24 0.36,-0.38 0.6,-0.43 0.23,-0.05 0.48,-0.01 0.68,0.11l0 0 0.02 0.01 0.02 0.01c0.21,0.16 0.35,0.37 0.41,0.61 0.05,0.23 0.02,0.48 -0.11,0.71l-0.01 0.01c-0.54,0.86 -1.27,1.56 -2.14,2.05zm-12.9 -15.43c0.25,0 0.45,0.09 0.62,0.28 0.08,0.09 0.14,0.19 0.19,0.31 0.03,0.11 0.05,0.23 0.05,0.37l0 13.76c0,0.26 -0.08,0.48 -0.24,0.66 -0.08,0.1 -0.17,0.18 -0.28,0.22 -0.1,0.05 -0.22,0.08 -0.34,0.08 -0.13,0 -0.24,-0.02 -0.35,-0.07 -0.11,-0.05 -0.21,-0.13 -0.3,-0.22 -0.08,-0.09 -0.14,-0.2 -0.19,-0.31 -0.04,-0.11 -0.06,-0.23 -0.06,-0.36l0 -10.15 -4.51 10.28 -0.01 0.01c-0.08,0.15 -0.19,0.27 -0.32,0.34 -0.13,0.09 -0.28,0.13 -0.44,0.13 -0.38,0 -0.65,-0.2 -0.82,-0.59l-4.49 -10.01 0 9.99c0,0.26 -0.08,0.48 -0.24,0.66 -0.08,0.1 -0.18,0.18 -0.29,0.22 -0.1,0.05 -0.22,0.08 -0.35,0.08 -0.12,0 -0.24,-0.03 -0.34,-0.08 -0.11,-0.04 -0.2,-0.12 -0.29,-0.21 -0.08,-0.09 -0.15,-0.2 -0.19,-0.31 -0.04,-0.11 -0.06,-0.23 -0.06,-0.36l0 -13.76c0,-0.14 0.02,-0.26 0.06,-0.37 0.04,-0.12 0.11,-0.23 0.19,-0.32 0.09,-0.09 0.18,-0.16 0.29,-0.2 0.11,-0.05 0.22,-0.07 0.34,-0.07 0.35,0 0.61,0.16 0.79,0.49l0 0.01 5.45 12.05 5.34 -12.04 0 -0.02c0.18,-0.33 0.44,-0.49 0.79,-0.49zm12.61 6.79c-0.69,-0.6 -1.58,-0.96 -2.54,-0.96 -0.98,0 -1.87,0.35 -2.57,0.94 -0.6,0.51 -1.05,1.19 -1.29,1.98l7.66 0c-0.23,-0.78 -0.67,-1.46 -1.26,-1.96zm15.32 9.1c-0.19,-0.18 -0.3,-0.42 -0.3,-0.68l0 -0.62c-0.4,0.38 -0.86,0.7 -1.36,0.95 -0.79,0.4 -1.69,0.63 -2.63,0.63 -1.65,0 -3.14,-0.69 -4.21,-1.79 -1.08,-1.11 -1.74,-2.64 -1.74,-4.32 0,-1.7 0.66,-3.24 1.73,-4.35 1.08,-1.11 2.56,-1.8 4.22,-1.8 0.94,0 1.83,0.23 2.62,0.63 0.51,0.26 0.96,0.58 1.37,0.96l0 -5.54c0,-0.27 0.11,-0.51 0.3,-0.69 0.17,-0.17 0.42,-0.27 0.69,-0.27 0.26,0 0.5,0.1 0.67,0.28 0.18,0.17 0.29,0.41 0.29,0.68l0 15.25c0,0.26 -0.11,0.5 -0.29,0.67l0 0c-0.17,0.18 -0.41,0.29 -0.67,0.29 -0.27,0 -0.52,-0.11 -0.69,-0.28zm-7.12 -2.88c0.73,0.75 1.73,1.21 2.83,1.21 1.07,0 2.04,-0.44 2.76,-1.15 0.72,-0.72 1.19,-1.72 1.23,-2.82l0 0 0 -0.38 0 0c-0.04,-1.12 -0.51,-2.12 -1.23,-2.85 -0.72,-0.72 -1.7,-1.17 -2.76,-1.17 -1.1,0 -2.1,0.47 -2.82,1.23 -0.73,0.76 -1.18,1.81 -1.18,2.98 0,1.15 0.45,2.19 1.17,2.95zm20.02 2.42c-0.85,0.47 -1.81,0.74 -2.83,0.74 -1.66,0 -3.15,-0.69 -4.22,-1.79 -1.08,-1.11 -1.75,-2.64 -1.75,-4.32 0,-1.7 0.66,-3.24 1.74,-4.35 1.08,-1.11 2.57,-1.8 4.23,-1.8 1.57,0 2.98,0.62 4.03,1.63 1.06,1.03 1.76,2.46 1.88,4.07l0 0.03 0 0.09c0,0.27 -0.11,0.5 -0.29,0.66l0.01 0c-0.18,0.16 -0.42,0.26 -0.68,0.26l-8.96 0c0.13,0.96 0.58,1.81 1.21,2.44 0.73,0.72 1.72,1.15 2.8,1.15 0.68,0 1.35,-0.18 1.93,-0.5 0.57,-0.33 1.07,-0.8 1.42,-1.38l0 0 0 -0.01 0 0c0.15,-0.24 0.37,-0.38 0.61,-0.43 0.23,-0.05 0.47,-0.01 0.68,0.11l0 0 0.02 0.01 0.01 0.01c0.21,0.16 0.36,0.37 0.41,0.61 0.06,0.23 0.03,0.48 -0.11,0.71l-0.01 0.01c-0.53,0.86 -1.27,1.56 -2.13,2.05zm-0.29 -8.64c-0.7,-0.6 -1.59,-0.96 -2.54,-0.96 -0.98,0 -1.88,0.35 -2.58,0.94 -0.59,0.51 -1.04,1.19 -1.29,1.98l7.67 0c-0.23,-0.78 -0.68,-1.46 -1.26,-1.96zm9.5 9.38c-0.18,0 -0.19,0 -0.3,-0.12l-0.03 -0.01c-0.01,-0.01 0,-0.01 -0.01,-0.01l-0.06 -0.03 -0.05 -0.04c-0.09,-0.1 -0.19,-0.2 -0.27,-0.39l0 0 -4.3 -10.24 0 0c-0.1,-0.24 -0.09,-0.5 -0.01,-0.72 0.09,-0.23 0.26,-0.42 0.49,-0.53l0.01 0c0.02,-0.01 0.04,-0.02 0.07,-0.02l0 0c0.22,-0.08 0.47,-0.06 0.67,0.02 0.22,0.09 0.41,0.26 0.5,0.49 0,0.01 0.01,0.02 0.02,0.04l3.43 8.14 3.44 -8.14c0.01,-0.02 0.02,-0.03 0.02,-0.04 0.09,-0.23 0.28,-0.4 0.49,-0.49 0.21,-0.08 0.46,-0.1 0.68,-0.02l0 -0.01c0.02,0.01 0.04,0.02 0.06,0.03 0.25,0.1 0.42,0.29 0.51,0.52 0.09,0.23 0.09,0.49 -0.01,0.73l0 0 -4.27 10.12c-0.02,0.06 -0.04,0.13 -0.07,0.19 -0.04,0.07 -0.08,0.14 -0.13,0.2l-0.01 0.01c-0.08,0.11 -0.19,0.19 -0.31,0.24 -0.13,0.05 -0.26,0.08 -0.37,0.08l-0.19 0zm16.86 -11.98c0.18,-0.18 0.42,-0.28 0.68,-0.28 0.26,0 0.51,0.1 0.68,0.28l0 0c0.18,0.17 0.28,0.41 0.28,0.68l0 10.34c0,0.26 -0.11,0.5 -0.28,0.67l0 0c-0.18,0.18 -0.42,0.29 -0.68,0.29 -0.26,0 -0.5,-0.11 -0.68,-0.29 -0.17,-0.17 -0.28,-0.41 -0.28,-0.67l0 -0.65c-0.4,0.38 -0.84,0.71 -1.33,0.96 -0.78,0.41 -1.65,0.65 -2.57,0.65 -1.62,0 -3.07,-0.69 -4.12,-1.8 -1.06,-1.12 -1.71,-2.65 -1.71,-4.33 0,-1.68 0.65,-3.22 1.71,-4.33 1.05,-1.11 2.5,-1.8 4.12,-1.8 0.92,0 1.8,0.23 2.58,0.63 0.48,0.26 0.93,0.58 1.32,0.95l0 -0.62c0,-0.27 0.11,-0.51 0.28,-0.68l0 0zm-6.93 8.83c0.7,0.76 1.68,1.22 2.75,1.22 1.07,0 2.05,-0.46 2.75,-1.22 0.71,-0.76 1.15,-1.81 1.15,-2.98 0,-1.18 -0.44,-2.24 -1.15,-3 -0.71,-0.77 -1.68,-1.23 -2.75,-1.23 -1.06,0 -2.04,0.47 -2.75,1.23 -0.71,0.77 -1.16,1.82 -1.16,3 0,1.17 0.45,2.22 1.16,2.98z"/>
  </g>
 </g>
</svg>
