<?xml version="1.0" encoding="UTF-8"?>
<!DOCTYPE svg PUBLIC "-//W3C//DTD SVG 1.1//EN" "http://www.w3.org/Graphics/SVG/1.1/DTD/svg11.dtd">
<!-- Creator: CorelDRAW 2021 (64-Bit) -->
<svg xmlns="http://www.w3.org/2000/svg" xml:space="preserve" width="116px" height="96px" version="1.1" style="shape-rendering:geometricPrecision; text-rendering:geometricPrecision; image-rendering:optimizeQuality; fill-rule:evenodd; clip-rule:evenodd"
viewBox="0 0 116 95.59"
 xmlns:xlink="http://www.w3.org/1999/xlink"
 xmlns:xodm="http://www.corel.com/coreldraw/odm/2003">
 <defs>
  <style type="text/css">
   <![CDATA[
    .fil1 {fill:#F9BC17;fill-rule:nonzero}
    .fil4 {fill:#FADA59;fill-rule:nonzero}
    .fil5 {fill:url(#id0);fill-rule:nonzero}
    .fil2 {fill:url(#id1);fill-rule:nonzero}
    .fil3 {fill:url(#id2);fill-rule:nonzero}
    .fil0 {fill:url(#id3);fill-rule:nonzero}
   ]]>
  </style>
  <linearGradient id="id0" gradientUnits="userSpaceOnUse" x1="5862.98" y1="-2348.48" x2="8161.67" y2="-6199.82">
   <stop offset="0" style="stop-opacity:1; stop-color:#FBBD15"/>
   <stop offset="1" style="stop-opacity:1; stop-color:#FBDA59"/>
  </linearGradient>
  <linearGradient id="id1" gradientUnits="userSpaceOnUse" xlink:href="#id0" x1="5739.53" y1="-7486.29" x2="8492.62" y2="-1883.65">
  </linearGradient>
  <linearGradient id="id2" gradientUnits="userSpaceOnUse" xlink:href="#id0" x1="4878.74" y1="-216.96" x2="6032.94" y2="-2440">
  </linearGradient>
  <linearGradient id="id3" gradientUnits="userSpaceOnUse" xlink:href="#id0" x1="71.36" y1="30.97" x2="72.33" y2="43.6">
  </linearGradient>
 </defs>
 <g id="Layer_x0020_1">
  <metadata id="CorelCorpID_0Corel-Layer"/>
  <g id="_2038830532048">
   <path class="fil0" d="M79.21 45.1l0 0c-0.49,-0.47 -1.08,-0.82 -1.72,-1.04 -1.86,-1.5 -3.08,-3.65 -3.43,-6.01 -0.36,-2.57 -0.59,-5.19 -0.67,-7.78 0,-0.06 0,-0.13 0,-0.2 0,-2.47 -1.99,-4.46 -4.46,-4.46 -2.46,0 -4.46,1.99 -4.46,4.46 0,0.07 0,0.14 0.01,0.2 0,0.01 0,0.01 0,0.01 0,0.94 0.3,1.85 0.86,2.61l0 0c0,0 4.07,4.38 5.05,8.04 0.59,2.41 1,4.88 1.2,7.35 0,0 0,0 0,0 0,2.46 2,4.46 4.46,4.46 2.46,0 4.46,-2 4.46,-4.46 0,-1.19 -0.48,-2.34 -1.33,-3.18l0.03 0z"/>
   <path class="fil1" d="M40.12 43.82c-0.54,0.01 -1.08,0.11 -1.58,0.3l0 0c-5.23,2.07 -10.81,3.17 -16.44,3.22 -8.41,0 -13.6,-2.01 -15.46,-2.85 -0.22,-0.14 -0.45,-0.25 -0.69,-0.35l0 0 0 0c-0.49,-0.19 -1.02,-0.29 -1.55,-0.29 -2.47,0 -4.46,2 -4.46,4.46 0,2.46 1.99,4.46 4.46,4.46 0.53,0 1.06,-0.11 1.55,-0.3l0 0c5.33,-1.31 10.83,-1.97 16.32,-1.97 5.49,0 10.98,0.66 16.31,1.97l0 0c0.5,0.18 1.03,0.28 1.56,0.28 2.46,0 4.45,-1.99 4.45,-4.45 0,-2.45 -1.98,-4.44 -4.43,-4.45l-0.04 -0.03z"/>
   <path class="fil2" d="M62.61 89.98l0 0c-3.77,-13.69 -6.63,-27.8 -8.49,-41.88 -1.63,-13.98 -2.55,-28.08 -2.55,-42.18 0.04,-0.21 0.06,-0.42 0.06,-0.62 0,-2.46 -2,-4.46 -4.46,-4.46 -2.46,0 -4.46,2 -4.46,4.46 0,0 0,0 0,0 0,0.61 0.13,1.22 0.38,1.77 0.71,2.76 6.26,24.63 8.42,41.45 1.69,13.09 2.55,26.39 2.55,39.61 0,0.97 0,1.99 0,2.96l0.06 0c-0.03,0.22 -0.06,0.44 -0.06,0.66 0,0.07 0,0.14 0,0.21 0,2.47 1.99,4.46 4.46,4.46 2.46,0 4.46,-1.99 4.46,-4.46 0,-0.07 -0.01,-0.14 -0.01,-0.21 0,-0.01 0,-0.03 0,-0.05 0,-0.59 -0.12,-1.18 -0.36,-1.72l0 0z"/>
   <path class="fil3" d="M51.64 5.3c0,-2.45 -1.99,-4.44 -4.45,-4.44 -2.23,0 -4.12,1.65 -4.41,3.86l-0.06 0 0 0.36c0,0.04 0,0.08 0,0.12 0,0.04 0,0.08 0,0.12 0,0.3 0.04,0.6 0.1,0.89 0.1,1.98 0.16,4.02 0.16,6.02 0,5.39 -0.41,10.81 -1.2,16.14 -1,5.78 -2.66,11.48 -4.91,16.91 -0.77,0.82 -1.19,1.9 -1.19,3.02 0,2.46 1.99,4.45 4.45,4.45 2.45,0 4.45,-1.99 4.45,-4.45 0,0 0,0 0,0 0,-0.26 -0.03,-0.53 -0.08,-0.79l0 0c-0.07,-1.51 -0.13,-3.07 -0.13,-4.6 0,-4.72 0.4,-9.45 1.17,-14.11 1.43,-7.29 3.36,-14.52 5.71,-21.56l-0.07 0c0.31,-0.61 0.46,-1.27 0.46,-1.94z"/>
   <path class="fil4" d="M111.48 43.82c-0.85,0 -1.67,0.25 -2.38,0.7 -4.93,1.79 -10.15,2.75 -15.39,2.8 -7.89,0 -12.99,-1.77 -15.09,-2.68 -0.75,-0.53 -1.64,-0.82 -2.55,-0.82 0,0 -0.01,0 -0.01,0 -2.46,0 -4.46,2 -4.46,4.46 0,2.46 2,4.46 4.46,4.46 0.52,-0.01 1.03,-0.11 1.52,-0.29 5.22,-1.29 10.61,-1.94 16,-1.94 0.09,0 0.19,0 0.28,0 0.02,0 0.06,0 0.08,0 5.29,0 10.58,0.62 15.72,1.83 0.57,0.26 1.19,0.4 1.82,0.4 2.46,0 4.46,-2 4.46,-4.46 0,-2.46 -2,-4.46 -4.46,-4.46z"/>
   <path class="fil5" d="M54.09 91.05c1.57,-7.77 5.19,-13.23 8.07,-30.65 3.04,-18.25 2.32,-29.91 2.32,-29.91l0 0c-0.01,-0.04 -0.01,-0.09 -0.01,-0.13 0,-0.05 0,-0.09 0.01,-0.13 0,-2.47 1.99,-4.46 4.46,-4.46 2.46,0 4.46,2 4.46,4.46 0,0.58 -0.12,1.17 -0.34,1.71l0 0c-2.75,6.41 -5.14,13.44 -7.62,29.33 -1.55,9.86 -2.42,19.94 -2.44,29.95l0 0.55c0,0.06 0,0.13 0,0.2 0,2.47 -1.99,4.46 -4.46,4.46 -2.46,0 -4.46,-1.99 -4.46,-4.46 0,-0.07 0.01,-0.14 0.01,-0.21 -0.01,-0.11 -0.01,-0.23 -0.01,-0.35 0,-0.12 0,-0.24 0.01,-0.36l0 0z"/>
  </g>
 </g>
</svg>
